<svg xmlns="http://www.w3.org/2000/svg" height="600" width="800" viewBox="0 0 800 600"><rect style="fill: none; stroke: red;" x="0.000000" y="0.000000" width="780.000000" height="600.000000"></rect><rect style="fill: none; stroke: black;" x="0.000000" y="35.000000" width="780.000000" height="4.500000"></rect><rect style="fill: none; stroke: black;" x="0.000000" y="565.000000" width="780.000000" height="4.500000"></rect><rect style="fill: none; stroke: purple;" x="55.000000" y="0.000000" width="4.500000" height="600.000000"></rect><rect style="fill: none; stroke: purple;" x="110.000000" y="0.000000" width="4.500000" height="600.000000"></rect><rect style="fill: none; stroke: purple;" x="165.000000" y="0.000000" width="4.500000" height="600.000000"></rect><rect style="fill: none; stroke: purple;" x="220.000000" y="0.000000" width="4.500000" height="600.000000"></rect><rect style="fill: none; stroke: purple;" x="275.000000" y="0.000000" width="4.500000" height="600.000000"></rect><rect style="fill: none; stroke: purple;" x="330.000000" y="0.000000" width="4.500000" height="600.000000"></rect><rect style="fill: none; stroke: purple;" x="385.000000" y="0.000000" width="4.500000" height="600.000000"></rect><rect style="fill: none; stroke: purple;" x="440.000000" y="0.000000" width="4.500000" height="600.000000"></rect><rect style="fill: none; stroke: purple;" x="495.000000" y="0.000000" width="4.500000" height="600.000000"></rect><rect style="fill: none; stroke: purple;" x="550.000000" y="0.000000" width="4.500000" height="600.000000"></rect><rect style="fill: none; stroke: purple;" x="605.000000" y="0.000000" width="4.500000" height="600.000000"></rect><rect style="fill: none; stroke: purple;" x="660.000000" y="0.000000" width="4.500000" height="600.000000"></rect><rect style="fill: none; stroke: purple;" x="715.000000" y="0.000000" width="4.500000" height="600.000000"></rect><rect style="fill: none; stroke: purple;" x="770.000000" y="0.000000" width="4.500000" height="600.000000"></rect><line style="fill: none; stroke: #000000; stroke-dasharray: 5 5;" x1="55.000000" y1="35.000000" x2="600.000000" y2="569.500000"></line><line style="fill: none; stroke: #000000; stroke-dasharray: 5 5;" x1="55.000000" y1="569.500000" x2="600.000000" y2="35.000000"></line><rect style="fill: none; stroke: #000000; black: 5 5;" x="110.000000" y="32.000000" width="9.700000" height="9.700000"></rect><rect style="fill: none; stroke: #000000; black: 5 5;" x="420.000000" y="32.000000" width="9.700000" height="9.700000"></rect><rect style="fill: none; stroke: #000000; black: 5 5;" x="730.000000" y="32.000000" width="9.700000" height="9.700000"></rect><rect style="fill: none; stroke: #000000; black: 5 5;" x="110.000000" y="562.000000" width="9.700000" height="9.700000"></rect><rect style="fill: none; stroke: #000000; black: 5 5;" x="420.000000" y="562.000000" width="9.700000" height="9.700000"></rect><rect style="fill: none; stroke: #000000; black: 5 5;" x="730.000000" y="562.000000" width="9.700000" height="9.700000"></rect></svg>