<svg xmlns="http://www.w3.org/2000/svg" height="1000" width="1000" viewBox="1 1 10 10">
    <rect style="fill: black;" x="1.050000" y="1.050000" width="0.900000" height="0.900000"></rect>
    <rect style="fill: black;" x="1.050000" y="3.050000" width="0.900000" height="0.900000"></rect>
    <rect style="fill: white;" x="1.050000" y="4.050000" width="0.900000" height="0.900000"></rect>
    <rect style="fill: black;" x="1.050000" y="5.050000" width="0.900000" height="0.900000"></rect>
    <rect style="fill: white;" x="1.050000" y="6.050000" width="0.900000" height="0.900000"></rect>
    <rect style="fill: black;" x="1.050000" y="7.050000" width="0.900000" height="0.900000"></rect>
    <rect style="fill: white;" x="1.050000" y="8.050000" width="0.900000" height="0.900000"></rect>
    <rect style="fill: white;" x="2.050000" y="1.050000" width="0.900000" height="0.900000"></rect>


    <rect style="fill: white;" x="2.050000" y="3.050000" width="0.900000" height="0.900000"></rect>
    <rect style="fill: black;" x="2.050000" y="4.050000" width="0.900000" height="0.900000"></rect>
    <rect style="fill: white;" x="2.050000" y="5.050000" width="0.900000" height="0.900000"></rect>
    <rect style="fill: black;" x="2.050000" y="6.050000" width="0.900000" height="0.900000"></rect>
    <rect style="fill: white;" x="2.050000" y="7.050000" width="0.900000" height="0.900000"></rect>
    <rect style="fill: black;" x="2.050000" y="8.050000" width="0.900000" height="0.900000"></rect>
    <rect style="fill: black;" x="3.050000" y="1.050000" width="0.900000" height="0.900000"></rect>
    <rect style="fill: white;" x="3.050000" y="2.050000" width="0.900000" height="0.900000"></rect>
    <rect style="fill: black;" x="3.050000" y="3.050000" width="0.900000" height="0.900000"></rect>
    <rect style="fill: white;" x="3.050000" y="4.050000" width="0.900000" height="0.900000"></rect>
    <rect style="fill: black;" x="3.050000" y="5.050000" width="0.900000" height="0.900000"></rect>
    <rect style="fill: white;" x="3.050000" y="6.050000" width="0.900000" height="0.900000"></rect>
    <rect style="fill: black;" x="3.050000" y="7.050000" width="0.900000" height="0.900000"></rect>
    <rect style="fill: white;" x="3.050000" y="8.050000" width="0.900000" height="0.900000"></rect>
    <rect style="fill: white;" x="4.050000" y="1.050000" width="0.900000" height="0.900000"></rect>
    <rect style="fill: black;" x="4.050000" y="2.050000" width="0.900000" height="0.900000"></rect>
    <rect style="fill: white;" x="4.050000" y="3.050000" width="0.900000" height="0.900000"></rect>
    <rect style="fill: black;" x="4.050000" y="4.050000" width="0.900000" height="0.900000"></rect>
    <rect style="fill: white;" x="4.050000" y="5.050000" width="0.900000" height="0.900000"></rect>
    <rect style="fill: black;" x="4.050000" y="6.050000" width="0.900000" height="0.900000"></rect>
    <rect style="fill: white;" x="4.050000" y="7.050000" width="0.900000" height="0.900000"></rect>
    <rect style="fill: black;" x="4.050000" y="8.050000" width="0.900000" height="0.900000"></rect>
    <rect style="fill: black;" x="5.050000" y="1.050000" width="0.900000" height="0.900000"></rect>
    <rect style="fill: white;" x="5.050000" y="2.050000" width="0.900000" height="0.900000"></rect>
    <rect style="fill: black;" x="5.050000" y="3.050000" width="0.900000" height="0.900000"></rect>
    <rect style="fill: white;" x="5.050000" y="4.050000" width="0.900000" height="0.900000"></rect>
    <rect style="fill: black;" x="5.050000" y="5.050000" width="0.900000" height="0.900000"></rect>
    <rect style="fill: white;" x="5.050000" y="6.050000" width="0.900000" height="0.900000"></rect>
    <rect style="fill: black;" x="5.050000" y="7.050000" width="0.900000" height="0.900000"></rect>
    <rect style="fill: white;" x="5.050000" y="8.050000" width="0.900000" height="0.900000"></rect>
    <rect style="fill: white;" x="6.050000" y="1.050000" width="0.900000" height="0.900000"></rect>
    <rect style="fill: black;" x="6.050000" y="2.050000" width="0.900000" height="0.900000"></rect>
    <rect style="fill: white;" x="6.050000" y="3.050000" width="0.900000" height="0.900000"></rect>
    <rect style="fill: black;" x="6.050000" y="4.050000" width="0.900000" height="0.900000"></rect>
    <rect style="fill: white;" x="6.050000" y="5.050000" width="0.900000" height="0.900000"></rect>
    <rect style="fill: black;" x="6.050000" y="6.050000" width="0.900000" height="0.900000"></rect>
    <rect style="fill: white;" x="6.050000" y="7.050000" width="0.900000" height="0.900000"></rect>
    <rect style="fill: black;" x="6.050000" y="8.050000" width="0.900000" height="0.900000"></rect>
    <rect style="fill: black;" x="7.050000" y="1.050000" width="0.900000" height="0.900000"></rect>
    <rect style="fill: white;" x="7.050000" y="2.050000" width="0.900000" height="0.900000"></rect>
    <rect style="fill: black;" x="7.050000" y="3.050000" width="0.900000" height="0.900000"></rect>
    <rect style="fill: white;" x="7.050000" y="4.050000" width="0.900000" height="0.900000"></rect>
    <rect style="fill: black;" x="7.050000" y="5.050000" width="0.900000" height="0.900000"></rect>
    <rect style="fill: white;" x="7.050000" y="6.050000" width="0.900000" height="0.900000"></rect>
    <rect style="fill: black;" x="7.050000" y="7.050000" width="0.900000" height="0.900000"></rect>
    <rect style="fill: white;" x="7.050000" y="8.050000" width="0.900000" height="0.900000"></rect>
    <rect style="fill: white;" x="8.050000" y="1.050000" width="0.900000" height="0.900000"></rect>
    <rect style="fill: black;" x="8.050000" y="2.050000" width="0.900000" height="0.900000"></rect>
    <rect style="fill: white;" x="8.050000" y="3.050000" width="0.900000" height="0.900000"></rect>
    <rect style="fill: black;" x="8.050000" y="4.050000" width="0.900000" height="0.900000"></rect>
    <rect style="fill: white;" x="8.050000" y="5.050000" width="0.900000" height="0.900000"></rect>
    <rect style="fill: black;" x="8.050000" y="6.050000" width="0.900000" height="0.900000"></rect>
    <rect style="fill: white;" x="8.050000" y="7.050000" width="0.900000" height="0.900000"></rect>
    <rect style="fill: black;" x="8.050000" y="8.050000" width="0.900000" height="0.900000"></rect>
</svg>